<?xml version="1.0" encoding="iso-8859-1"?>
<!-- Uploaded to: SVG Repo, www.svgrepo.com, Generator: SVG Repo Mixer Tools -->
<!DOCTYPE svg PUBLIC "-//W3C//DTD SVG 1.1//EN" "http://www.w3.org/Graphics/SVG/1.1/DTD/svg11.dtd">
<svg fill="#000000" version="1.1" id="Capa_1" xmlns="http://www.w3.org/2000/svg" xmlns:xlink="http://www.w3.org/1999/xlink" 
	 width="800px" height="800px" viewBox="0 0 83.066 83.066"
	 xml:space="preserve">
<g>
	<g>
		<path d="M82.066,17.595H34.983c-0.552,0-1,0.448-1,1v2.635H1c-0.552,0-1,0.448-1,1v34.075c0,0.552,0.448,1,1,1h17.565v4.419v2.748
			c0,0.553,0.448,1,1,1h9.894c0.552,0,1-0.447,1-1v-2.748v-4.419h17.625c0.553,0,1-0.448,1-1V53.67h3.463v4.419v2.748
			c0,0.552,0.448,1,1,1h9.895c0.552,0,1-0.448,1-1v-2.748V53.67h17.625c0.552,0,1-0.448,1-1V18.595
			C83.066,18.043,82.618,17.595,82.066,17.595z M35.983,19.595h45.083v27.968H49.084V22.229c0-0.552-0.447-1-1-1H35.983V19.595z
			 M34.983,23.229h12.102v27.969H2V23.229H34.983z M28.459,63.472h-7.894v-0.748h7.894V63.472z M28.459,60.724h-7.894v-3.419h7.894
			V60.724z M29.459,55.305h-9.894H2v-2.106h45.084v2.106H29.459z M62.441,59.837h-7.895v-0.748h7.895V59.837z M62.441,57.089h-7.895
			V53.67h7.895V57.089z M63.441,51.67h-9.895h-4.463v-2.107h31.981v2.107H63.441z"/>
	</g>
</g>
</svg>